HIERARCHY
ROOT Pelvis
{
	OFFSET 0.000000 0.000000 0.000000
	CHANNELS 6 Xposition Yposition Zposition Zrotation Yrotation Xrotation 
	JOINT Left_hip
	{
		OFFSET 0.070241 -0.085575 -0.010474
		CHANNELS 3 Zrotation Yrotation Xrotation
		JOINT Left_knee
		{
			OFFSET 0.032125 -0.356873 -0.000555
			CHANNELS 3 Zrotation Yrotation Xrotation
			JOINT Left_ankle
			{
				OFFSET -0.010961 -0.370212 -0.042278
				CHANNELS 3 Zrotation Yrotation Xrotation
				JOINT Left_foot
				{
					OFFSET 0.023322 -0.052281 0.110104
					CHANNELS 3 Zrotation Yrotation Xrotation
					End Site
					{
						OFFSET 0.000000 0.000000 0.000000
					}
				}
			}
		}
	}
	JOINT Right_hip
	{
		OFFSET -0.068518 -0.084320 -0.007402
		CHANNELS 3 Zrotation Yrotation Xrotation
		JOINT Right_knee
		{
			OFFSET -0.037345 -0.364815 -0.003619
			CHANNELS 3 Zrotation Yrotation Xrotation
			JOINT Right_ankle
			{
				OFFSET 0.013394 -0.370006 -0.039954
				CHANNELS 3 Zrotation Yrotation Xrotation
				JOINT Right_foot
				{
					OFFSET -0.019600 -0.045455 0.113223
					CHANNELS 3 Zrotation Yrotation Xrotation
					End Site
					{
						OFFSET 0.000000 0.000000 0.000000
					}
				}
			}
		}
	}
	JOINT Spine1
	{
		OFFSET -0.002404 0.098129 -0.018169
		CHANNELS 3 Zrotation Yrotation Xrotation
		JOINT Spine2
		{
			OFFSET 0.003989 0.127209 -0.001742
			CHANNELS 3 Zrotation Yrotation Xrotation
			JOINT Spine3
			{
				OFFSET 0.001758 0.046641 0.023475
				CHANNELS 3 Zrotation Yrotation Xrotation
				JOINT Neck
				{
					OFFSET -0.003759 0.194901 -0.039982
					CHANNELS 3 Zrotation Yrotation Xrotation
					JOINT Head
					{
						OFFSET 0.003999 0.063756 0.047665
						CHANNELS 3 Zrotation Yrotation Xrotation
						End Site
						{
							OFFSET 0.000000 0.000000 0.000000
						}
					}
				}
				JOINT Left_collar
				{
					OFFSET 0.071816 0.109048 -0.028973
					CHANNELS 3 Zrotation Yrotation Xrotation
					JOINT Left_shoulder
					{
						OFFSET 0.084027 0.032269 -0.006525
						CHANNELS 3 Zrotation Yrotation Xrotation
						JOINT Left_elbow
						{
							OFFSET 0.243854 -0.013992 -0.025905
							CHANNELS 3 Zrotation Yrotation Xrotation
							JOINT Left_wrist
							{
								OFFSET 0.232156 0.008196 -0.000339
								CHANNELS 3 Zrotation Yrotation Xrotation
								JOINT Left_palm
								{
									OFFSET 0.075377 -0.009461 -0.012494
									CHANNELS 3 Zrotation Yrotation Xrotation
									End Site
									{
										OFFSET 0.000000 0.000000 0.000000
									}
								}
							}
						}
					}
				}
				JOINT Right_collar
				{
					OFFSET -0.073768 0.107001 -0.033755
					CHANNELS 3 Zrotation Yrotation Xrotation
					JOINT Right_shoulder
					{
						OFFSET -0.086837 0.032868 -0.009431
						CHANNELS 3 Zrotation Yrotation Xrotation
						JOINT Right_elbow
						{
							OFFSET -0.236446 -0.012544 -0.018747
							CHANNELS 3 Zrotation Yrotation Xrotation
							JOINT Right_wrist
							{
								OFFSET -0.236110 0.006124 -0.004327
								CHANNELS 3 Zrotation Yrotation Xrotation
								JOINT Right_palm
								{
									OFFSET -0.074800 -0.006875 -0.009610
									CHANNELS 3 Zrotation Yrotation Xrotation
									End Site
									{
										OFFSET 0.000000 0.000000 0.000000
									}
								}
							}
						}
					}
				}
			}
		}
	}
}
MOTION
Frames: 9
Frame Time: 0.100000
0.000000 0.000000 0.000000 175.743666 22.319569 -12.328200 -1.876736 3.506889 0.473557 0.775907 -8.428576 -4.734204 -3.008761 24.792523 -1.985482 10.563685 -2.785051 0.239810 4.515780 -4.335216 -0.065133 0.012889 5.507763 0.348925 -5.141013 -23.395622 -9.047265 10.703159 4.478959 9.383139 -0.293059 2.361205 -1.358853 1.202024 -2.506135 -2.244293 0.330489 1.711566 -2.101458 -1.479297 0.486202 4.786179 2.783846 3.542251 -0.008236 -6.961922 4.252328 -9.867157 4.143641 -15.849357 -13.386300 3.436556 7.060584 -6.175915 -2.017289 -1.038541 34.230682 -2.377656 -7.680533 -3.056854 9.266697 -1.140981 -7.206349 -4.409403 11.245532 -17.907225 -10.248056 -7.683169 -8.384612 -1.933168 -0.287510 31.418248 9.056197 8.811762 -3.594740 
-0.001021 -0.000162 0.001167 175.900696 21.961570 -12.166115 -1.962448 3.477385 0.597461 0.785311 -8.240127 -4.917350 -2.871343 24.885139 -2.016240 10.406230 -2.826831 0.417331 4.407997 -4.341459 0.000044 -0.030221 5.670389 0.089526 -4.962149 -23.208225 -8.526347 10.397526 4.631701 9.255353 -0.324375 2.385237 -1.360404 1.158534 -2.502330 -2.120975 0.245428 1.698176 -2.100082 -2.105139 -0.835942 4.657821 2.539975 2.280991 -0.398632 -6.864111 4.209218 -9.806820 3.997410 -15.829738 -13.423562 3.383846 7.258869 -6.431392 -2.127650 -0.953391 34.323588 -2.059255 -7.571521 -3.062405 9.338915 -0.952869 -7.364092 -4.378988 11.248165 -18.045461 -10.364729 -7.976265 -8.703705 -1.969782 -0.360696 31.534984 8.848636 8.676328 -3.656121 
-0.002274 -0.000124 0.002585 176.298864 21.462026 -11.670734 -2.338721 3.288298 0.615105 0.894834 -7.722928 -5.357608 -2.477093 24.991753 -1.937676 9.995125 -2.959107 0.831882 4.099931 -4.353064 -0.176554 -0.221028 5.694703 -0.541075 -4.500042 -22.659729 -5.883475 9.735560 4.935710 8.419901 -0.436115 2.421337 -1.377697 1.120780 -2.443020 -2.094183 0.085891 1.724247 -2.219731 -2.961589 -2.507539 4.505256 2.295599 0.623714 -0.928254 -6.511460 4.289723 -9.697976 4.057046 -15.531918 -13.332777 3.403542 7.401146 -6.561591 -2.356172 -1.031490 34.238950 -1.405710 -7.318716 -2.895212 9.224257 -0.865089 -7.421137 -4.247135 11.138407 -17.926280 -10.515128 -7.839806 -8.628563 -1.988087 -0.298139 31.730026 8.430719 8.441026 -3.752436 
-0.003700 -0.000273 0.005025 176.564871 20.949869 -11.410811 -2.520873 3.130765 0.768887 0.898535 -7.577076 -5.503735 -2.241973 25.282343 -2.167292 9.933814 -3.071192 1.043753 3.872623 -4.173838 -0.409468 -0.210626 5.915823 -0.306440 -4.245622 -22.309303 -4.985839 9.526219 5.089752 7.954472 -0.503202 2.400985 -1.368421 1.179250 -2.384557 -2.026413 0.052997 1.792391 -2.269160 -3.011633 -2.679742 4.320591 2.349536 0.526980 -1.233885 -6.440184 4.519221 -9.716783 4.121854 -15.345465 -13.279059 3.218031 7.098926 -6.835680 -2.280678 -1.158959 33.803803 -1.166136 -7.136214 -2.695578 9.248623 -0.915986 -7.399406 -4.406076 11.281195 -17.979928 -10.352153 -7.723289 -8.762661 -2.057340 -0.219410 31.709079 8.203438 8.261919 -3.626497 
-0.005958 -0.000568 0.008465 176.715414 20.949122 -11.214049 -2.687031 3.060148 0.798263 0.783820 -7.553641 -5.301134 -2.070231 25.191229 -2.487588 9.649078 -3.084117 1.170482 3.594748 -4.243670 -0.241926 -0.239255 6.013547 -0.619530 -4.189611 -22.029206 -4.028734 9.575402 5.078165 7.703240 -0.493804 2.426208 -1.529214 1.255823 -2.429479 -1.894260 0.046347 1.798215 -2.371822 -2.968809 -2.775545 4.281681 2.274308 0.679108 -0.916711 -6.488997 4.260755 -9.525865 4.043193 -15.331424 -13.150679 3.252545 7.056957 -6.630647 -2.346794 -1.186760 33.743476 -1.053600 -7.132596 -2.656160 9.166993 -0.899968 -7.263177 -4.671630 11.127109 -18.175228 -10.457164 -7.911091 -8.757855 -2.068490 -0.327322 32.104863 8.202017 8.308077 -3.772752 
-0.009302 -0.000993 0.012550 176.871333 20.949345 -10.991513 -2.903427 2.977238 0.997323 0.741921 -7.701501 -5.320899 -2.091766 25.163293 -2.883653 9.768070 -3.066925 1.279726 3.346518 -4.191972 -0.200836 -0.300526 5.909809 -0.506936 -4.279924 -21.773544 -3.620094 9.857719 4.854802 7.533933 -0.291840 2.430898 -1.721746 1.290943 -2.376072 -1.647267 0.054259 1.891492 -2.550261 -2.995558 -1.337399 4.301880 1.962642 2.040492 -1.398260 -6.858472 4.088027 -9.594217 3.951647 -15.310787 -12.849947 3.401080 6.398494 -6.348709 -2.036047 -1.772259 33.569029 -1.241169 -7.127833 -2.642326 9.239606 -0.976924 -7.122066 -4.875402 10.978677 -18.251402 -10.563408 -7.528121 -8.985130 -2.357245 0.092033 32.146400 8.482656 8.370548 -3.818197 
-0.013558 -0.001496 0.017131 176.782094 21.001252 -10.824736 -2.911978 2.960660 1.134110 0.636995 -8.377926 -5.223155 -2.464433 25.284351 -3.421753 10.416542 -3.290347 0.767747 3.200059 -4.340714 0.093844 -0.333392 5.621725 -0.818178 -4.683007 -21.357871 -3.151588 10.985483 4.363115 7.147318 -0.086153 2.646291 -2.163744 1.428926 -2.172513 -1.193476 0.407865 2.233846 -2.751234 -1.791913 6.477896 3.714168 1.459675 9.397721 -1.197941 -7.948784 3.366770 -9.761173 3.974165 -15.644078 -12.294269 4.030820 4.292807 -5.329277 1.524569 -4.282464 32.569410 -2.160273 -7.153315 -2.136358 9.458366 -1.423171 -6.267689 -5.216602 11.010727 -18.811770 -10.454237 -7.520541 -10.002265 -4.841495 1.745029 31.728789 9.553768 8.747010 -3.408796 
-0.018456 -0.001566 0.022402 176.379988 22.586387 -11.260075 -2.713060 2.899775 1.583709 0.261429 -9.996892 -4.781426 -3.723287 24.649476 -4.224460 11.884155 -3.563432 -1.010589 2.894972 -4.930238 0.571180 -0.125072 4.200808 -0.076293 -5.177375 -20.974387 -3.583690 12.219948 4.229124 6.988459 -0.317981 3.056457 -3.197293 1.703655 -1.587024 0.857663 0.568276 2.846289 -3.086813 -0.083510 15.975597 3.651148 1.055361 18.057869 -1.684612 -10.638780 3.940939 -9.299647 1.737841 -17.872085 -8.187092 5.857531 -11.387486 1.662156 12.929804 -12.059146 29.009613 -5.265653 -7.141104 -2.422020 11.082610 -3.411867 -5.062212 -2.478320 11.245104 -18.478762 -11.697815 -6.018656 -14.475513 -14.991423 6.766664 25.250659 12.304290 9.362619 -1.789350 
-0.021006 -0.000210 0.026349 175.727352 27.128860 -12.579695 -2.433306 2.036549 2.257441 -0.709830 -12.492641 -3.688258 -4.913704 23.156169 -4.730395 13.583854 -3.798913 -4.676073 1.884707 -5.426638 -1.943662 0.815162 1.394841 8.295382 -4.291516 -21.723508 -6.999460 9.718928 6.499522 7.235987 -1.046498 2.970177 -3.302317 1.974603 -0.851226 3.685102 0.352735 3.301744 -3.792569 -0.357102 18.631357 2.080247 1.527627 21.283452 0.008880 -13.807932 6.302266 -7.669170 -6.494002 -20.962483 -0.088945 5.646988 -41.187502 12.847452 24.148042 -19.420837 22.292998 -11.023352 -8.263855 -4.872156 14.642358 -5.787068 -3.932204 5.367668 11.998062 -16.447227 -14.109970 -3.919646 -23.783240 -23.200515 8.979506 11.318820 16.104502 10.666355 0.269755 
